<svg width="320" height="100" viewBox="0 0 320 100" fill="none" xmlns="http://www.w3.org/2000/svg"><rect width="320" height="100"/><path d="M122.835 70.5439C123.2 70.5439 123.496 70.4437 123.724 70.2432C123.951 70.0426 124.07 69.776 124.079 69.4434H125.932C125.927 69.9447 125.79 70.4049 125.521 70.8242C125.253 71.2389 124.883 71.5625 124.414 71.7949C123.949 72.0228 123.434 72.1367 122.869 72.1367C121.812 72.1367 120.978 71.8018 120.367 71.1318C119.757 70.4574 119.451 69.5277 119.451 68.3428V68.2129C119.451 67.0736 119.754 66.1644 120.36 65.4854C120.966 64.8063 121.798 64.4668 122.855 64.4668C123.781 64.4668 124.521 64.7311 125.077 65.2598C125.638 65.7839 125.923 66.4834 125.932 67.3584H124.079C124.07 66.9756 123.951 66.6657 123.724 66.4287C123.496 66.1872 123.195 66.0664 122.821 66.0664C122.361 66.0664 122.012 66.235 121.775 66.5723C121.543 66.9049 121.427 67.4473 121.427 68.1992V68.4043C121.427 69.1654 121.543 69.7122 121.775 70.0449C122.008 70.3776 122.361 70.5439 122.835 70.5439ZM126.752 68.2334C126.752 67.4997 126.893 66.8457 127.176 66.2715C127.458 65.6973 127.864 65.2529 128.393 64.9385C128.926 64.624 129.543 64.4668 130.245 64.4668C131.243 64.4668 132.057 64.7721 132.686 65.3828C133.319 65.9935 133.672 66.8229 133.745 67.8711L133.759 68.377C133.759 69.5117 133.442 70.4232 132.809 71.1113C132.175 71.7949 131.325 72.1367 130.259 72.1367C129.192 72.1367 128.34 71.7949 127.702 71.1113C127.069 70.4277 126.752 69.498 126.752 68.3223V68.2334ZM128.728 68.377C128.728 69.0788 128.86 69.6165 129.124 69.9902C129.388 70.3594 129.767 70.5439 130.259 70.5439C130.737 70.5439 131.111 70.3617 131.38 69.9971C131.649 69.6279 131.783 69.04 131.783 68.2334C131.783 67.5452 131.649 67.012 131.38 66.6338C131.111 66.2555 130.733 66.0664 130.245 66.0664C129.762 66.0664 129.388 66.2555 129.124 66.6338C128.86 67.0075 128.728 67.5885 128.728 68.377ZM136.794 64.6035L136.855 65.458C137.384 64.7972 138.093 64.4668 138.981 64.4668C139.765 64.4668 140.349 64.6969 140.731 65.1572C141.114 65.6175 141.31 66.3057 141.319 67.2217V72H139.344V67.2695C139.344 66.8503 139.253 66.5472 139.07 66.3604C138.888 66.1689 138.585 66.0732 138.161 66.0732C137.605 66.0732 137.188 66.3102 136.91 66.7842V72H134.935V64.6035H136.794ZM145.188 62.7852V64.6035H146.453V66.0527H145.188V69.7441C145.188 70.0176 145.241 70.2135 145.346 70.332C145.451 70.4505 145.651 70.5098 145.947 70.5098C146.166 70.5098 146.36 70.4938 146.528 70.4619V71.959C146.141 72.0775 145.742 72.1367 145.332 72.1367C143.947 72.1367 143.24 71.4372 143.213 70.0381V66.0527H142.133V64.6035H143.213V62.7852H145.188ZM150.958 72.1367C149.873 72.1367 148.989 71.804 148.306 71.1387C147.627 70.4733 147.287 69.5869 147.287 68.4795V68.2881C147.287 67.5452 147.431 66.8822 147.718 66.2988C148.005 65.7109 148.41 65.2598 148.935 64.9453C149.463 64.6263 150.065 64.4668 150.739 64.4668C151.751 64.4668 152.546 64.7858 153.125 65.4238C153.708 66.0618 154 66.9665 154 68.1377V68.9443H149.29C149.354 69.4274 149.545 69.8148 149.864 70.1064C150.188 70.3981 150.596 70.5439 151.088 70.5439C151.849 70.5439 152.444 70.2682 152.872 69.7168L153.843 70.8037C153.547 71.223 153.146 71.5511 152.64 71.7881C152.134 72.0205 151.573 72.1367 150.958 72.1367ZM150.732 66.0664C150.34 66.0664 150.021 66.1986 149.775 66.4629C149.534 66.7272 149.379 67.1055 149.311 67.5977H152.059V67.4404C152.049 67.0029 151.931 66.6657 151.703 66.4287C151.475 66.1872 151.152 66.0664 150.732 66.0664ZM156.946 64.6035L157.008 65.458C157.536 64.7972 158.245 64.4668 159.134 64.4668C159.918 64.4668 160.501 64.6969 160.884 65.1572C161.267 65.6175 161.463 66.3057 161.472 67.2217V72H159.496V67.2695C159.496 66.8503 159.405 66.5472 159.223 66.3604C159.04 66.1689 158.737 66.0732 158.313 66.0732C157.757 66.0732 157.34 66.3102 157.062 66.7842V72H155.087V64.6035H156.946ZM165.341 62.7852V64.6035H166.605V66.0527H165.341V69.7441C165.341 70.0176 165.393 70.2135 165.498 70.332C165.603 70.4505 165.803 70.5098 166.1 70.5098C166.318 70.5098 166.512 70.4938 166.681 70.4619V71.959C166.293 72.0775 165.895 72.1367 165.484 72.1367C164.099 72.1367 163.393 71.4372 163.365 70.0381V66.0527H162.285V64.6035H163.365V62.7852H165.341ZM173.045 64.6035L173.106 65.4307C173.631 64.7881 174.339 64.4668 175.232 64.4668C176.185 64.4668 176.839 64.8428 177.194 65.5947C177.714 64.8428 178.454 64.4668 179.416 64.4668C180.218 64.4668 180.815 64.7015 181.207 65.1709C181.599 65.6357 181.795 66.3376 181.795 67.2764V72H179.812V67.2832C179.812 66.8639 179.73 66.5586 179.566 66.3672C179.402 66.1712 179.113 66.0732 178.698 66.0732C178.106 66.0732 177.696 66.3558 177.468 66.9209L177.475 72H175.499V67.29C175.499 66.8617 175.415 66.5518 175.246 66.3604C175.077 66.1689 174.79 66.0732 174.385 66.0732C173.824 66.0732 173.419 66.3057 173.168 66.7705V72H171.192V64.6035H173.045ZM187.605 72C187.514 71.8223 187.448 71.6012 187.407 71.3369C186.929 71.8701 186.307 72.1367 185.541 72.1367C184.816 72.1367 184.215 71.9271 183.736 71.5078C183.262 71.0885 183.025 70.5599 183.025 69.9219C183.025 69.138 183.315 68.5365 183.894 68.1172C184.477 67.6979 185.318 67.486 186.416 67.4814H187.325V67.0576C187.325 66.7158 187.236 66.4424 187.059 66.2373C186.885 66.0322 186.61 65.9297 186.231 65.9297C185.899 65.9297 185.637 66.0094 185.445 66.1689C185.258 66.3285 185.165 66.5472 185.165 66.8252H183.189C183.189 66.3968 183.322 66.0003 183.586 65.6357C183.85 65.2712 184.224 64.9863 184.707 64.7812C185.19 64.5716 185.732 64.4668 186.334 64.4668C187.245 64.4668 187.968 64.6969 188.501 65.1572C189.039 65.613 189.308 66.2555 189.308 67.085V70.291C189.312 70.9928 189.41 71.5238 189.602 71.8838V72H187.605ZM185.972 70.626C186.263 70.626 186.532 70.5622 186.778 70.4346C187.024 70.3024 187.207 70.127 187.325 69.9082V68.6367H186.587C185.598 68.6367 185.072 68.9785 185.008 69.6621L185.001 69.7783C185.001 70.0244 185.088 70.2272 185.261 70.3867C185.434 70.5462 185.671 70.626 185.972 70.626ZM192.644 64.6035L192.705 65.458C193.234 64.7972 193.942 64.4668 194.831 64.4668C195.615 64.4668 196.198 64.6969 196.581 65.1572C196.964 65.6175 197.16 66.3057 197.169 67.2217V72H195.193V67.2695C195.193 66.8503 195.102 66.5472 194.92 66.3604C194.738 66.1689 194.435 66.0732 194.011 66.0732C193.455 66.0732 193.038 66.3102 192.76 66.7842V72H190.784V64.6035H192.644ZM202.959 72C202.868 71.8223 202.802 71.6012 202.761 71.3369C202.282 71.8701 201.66 72.1367 200.895 72.1367C200.17 72.1367 199.568 71.9271 199.09 71.5078C198.616 71.0885 198.379 70.5599 198.379 69.9219C198.379 69.138 198.668 68.5365 199.247 68.1172C199.83 67.6979 200.671 67.486 201.77 67.4814H202.679V67.0576C202.679 66.7158 202.59 66.4424 202.412 66.2373C202.239 66.0322 201.963 65.9297 201.585 65.9297C201.252 65.9297 200.99 66.0094 200.799 66.1689C200.612 66.3285 200.519 66.5472 200.519 66.8252H198.543C198.543 66.3968 198.675 66.0003 198.939 65.6357C199.204 65.2712 199.577 64.9863 200.061 64.7812C200.544 64.5716 201.086 64.4668 201.688 64.4668C202.599 64.4668 203.321 64.6969 203.854 65.1572C204.392 65.613 204.661 66.2555 204.661 67.085V70.291C204.666 70.9928 204.764 71.5238 204.955 71.8838V72H202.959ZM201.325 70.626C201.617 70.626 201.886 70.5622 202.132 70.4346C202.378 70.3024 202.56 70.127 202.679 69.9082V68.6367H201.94C200.951 68.6367 200.425 68.9785 200.361 69.6621L200.354 69.7783C200.354 70.0244 200.441 70.2272 200.614 70.3867C200.787 70.5462 201.024 70.626 201.325 70.626ZM205.892 68.2471C205.892 67.1123 206.16 66.1986 206.698 65.5059C207.241 64.8132 207.97 64.4668 208.886 64.4668C209.697 64.4668 210.328 64.7448 210.779 65.3008L210.861 64.6035H212.652V71.7539C212.652 72.401 212.504 72.9639 212.208 73.4424C211.916 73.9209 211.504 74.2855 210.971 74.5361C210.438 74.7868 209.813 74.9121 209.098 74.9121C208.555 74.9121 208.027 74.8027 207.512 74.584C206.997 74.3698 206.607 74.0918 206.343 73.75L207.218 72.5469C207.71 73.0983 208.307 73.374 209.009 73.374C209.533 73.374 209.941 73.2327 210.232 72.9502C210.524 72.6722 210.67 72.2757 210.67 71.7607V71.3643C210.214 71.8792 209.615 72.1367 208.872 72.1367C207.983 72.1367 207.263 71.7904 206.712 71.0977C206.165 70.4004 205.892 69.4775 205.892 68.3291V68.2471ZM207.867 68.3906C207.867 69.0605 208.002 69.5869 208.271 69.9697C208.539 70.348 208.909 70.5371 209.378 70.5371C209.979 70.5371 210.41 70.3115 210.67 69.8604V66.75C210.406 66.2988 209.979 66.0732 209.392 66.0732C208.918 66.0732 208.544 66.2669 208.271 66.6543C208.002 67.0417 207.867 67.6204 207.867 68.3906ZM217.581 72.1367C216.496 72.1367 215.612 71.804 214.929 71.1387C214.25 70.4733 213.91 69.5869 213.91 68.4795V68.2881C213.91 67.5452 214.054 66.8822 214.341 66.2988C214.628 65.7109 215.034 65.2598 215.558 64.9453C216.086 64.6263 216.688 64.4668 217.362 64.4668C218.374 64.4668 219.169 64.7858 219.748 65.4238C220.331 66.0618 220.623 66.9665 220.623 68.1377V68.9443H215.913C215.977 69.4274 216.168 69.8148 216.487 70.1064C216.811 70.3981 217.219 70.5439 217.711 70.5439C218.472 70.5439 219.067 70.2682 219.495 69.7168L220.466 70.8037C220.17 71.223 219.769 71.5511 219.263 71.7881C218.757 72.0205 218.196 72.1367 217.581 72.1367ZM217.355 66.0664C216.964 66.0664 216.645 66.1986 216.398 66.4629C216.157 66.7272 216.002 67.1055 215.934 67.5977H218.682V67.4404C218.673 67.0029 218.554 66.6657 218.326 66.4287C218.098 66.1872 217.775 66.0664 217.355 66.0664ZM223.604 64.6035L223.665 65.4307C224.189 64.7881 224.898 64.4668 225.791 64.4668C226.743 64.4668 227.397 64.8428 227.753 65.5947C228.272 64.8428 229.013 64.4668 229.975 64.4668C230.777 64.4668 231.374 64.7015 231.766 65.1709C232.158 65.6357 232.354 66.3376 232.354 67.2764V72H230.371V67.2832C230.371 66.8639 230.289 66.5586 230.125 66.3672C229.961 66.1712 229.672 66.0732 229.257 66.0732C228.664 66.0732 228.254 66.3558 228.026 66.9209L228.033 72H226.058V67.29C226.058 66.8617 225.973 66.5518 225.805 66.3604C225.636 66.1689 225.349 66.0732 224.943 66.0732C224.383 66.0732 223.977 66.3057 223.727 66.7705V72H221.751V64.6035H223.604ZM237.282 72.1367C236.198 72.1367 235.313 71.804 234.63 71.1387C233.951 70.4733 233.611 69.5869 233.611 68.4795V68.2881C233.611 67.5452 233.755 66.8822 234.042 66.2988C234.329 65.7109 234.735 65.2598 235.259 64.9453C235.787 64.6263 236.389 64.4668 237.063 64.4668C238.075 64.4668 238.87 64.7858 239.449 65.4238C240.033 66.0618 240.324 66.9665 240.324 68.1377V68.9443H235.614C235.678 69.4274 235.869 69.8148 236.188 70.1064C236.512 70.3981 236.92 70.5439 237.412 70.5439C238.173 70.5439 238.768 70.2682 239.196 69.7168L240.167 70.8037C239.871 71.223 239.47 71.5511 238.964 71.7881C238.458 72.0205 237.897 72.1367 237.282 72.1367ZM237.057 66.0664C236.665 66.0664 236.346 66.1986 236.1 66.4629C235.858 66.7272 235.703 67.1055 235.635 67.5977H238.383V67.4404C238.374 67.0029 238.255 66.6657 238.027 66.4287C237.799 66.1872 237.476 66.0664 237.057 66.0664ZM243.271 64.6035L243.332 65.458C243.861 64.7972 244.569 64.4668 245.458 64.4668C246.242 64.4668 246.825 64.6969 247.208 65.1572C247.591 65.6175 247.787 66.3057 247.796 67.2217V72H245.82V67.2695C245.82 66.8503 245.729 66.5472 245.547 66.3604C245.365 66.1689 245.062 66.0732 244.638 66.0732C244.082 66.0732 243.665 66.3102 243.387 66.7842V72H241.411V64.6035H243.271ZM251.665 62.7852V64.6035H252.93V66.0527H251.665V69.7441C251.665 70.0176 251.717 70.2135 251.822 70.332C251.927 70.4505 252.128 70.5098 252.424 70.5098C252.643 70.5098 252.836 70.4938 253.005 70.4619V71.959C252.618 72.0775 252.219 72.1367 251.809 72.1367C250.423 72.1367 249.717 71.4372 249.689 70.0381V66.0527H248.609V64.6035H249.689V62.7852H251.665ZM261.522 69.9561C261.522 69.7145 261.402 69.5254 261.16 69.3887C260.923 69.2474 260.54 69.1221 260.012 69.0127C258.253 68.6436 257.373 67.8962 257.373 66.7705C257.373 66.1143 257.644 65.5674 258.187 65.1299C258.733 64.6878 259.447 64.4668 260.326 64.4668C261.265 64.4668 262.015 64.6878 262.575 65.1299C263.14 65.5719 263.423 66.1462 263.423 66.8525H261.447C261.447 66.57 261.356 66.3376 261.174 66.1553C260.992 65.9684 260.707 65.875 260.319 65.875C259.987 65.875 259.729 65.9502 259.547 66.1006C259.365 66.251 259.273 66.4424 259.273 66.6748C259.273 66.8936 259.376 67.0713 259.581 67.208C259.791 67.3402 260.142 67.4564 260.634 67.5566C261.126 67.6523 261.541 67.7617 261.878 67.8848C262.922 68.2676 263.443 68.9307 263.443 69.874C263.443 70.5485 263.154 71.0954 262.575 71.5146C261.996 71.9294 261.249 72.1367 260.333 72.1367C259.713 72.1367 259.162 72.0273 258.679 71.8086C258.2 71.5853 257.824 71.2822 257.551 70.8994C257.277 70.512 257.141 70.0951 257.141 69.6484H259.014C259.032 69.9993 259.162 70.2682 259.403 70.4551C259.645 70.6419 259.968 70.7354 260.374 70.7354C260.752 70.7354 261.037 70.6647 261.229 70.5234C261.424 70.3776 261.522 70.1885 261.522 69.9561ZM267.483 69.2041L268.851 64.6035H270.97L267.996 73.1484L267.832 73.5381C267.39 74.5042 266.661 74.9873 265.645 74.9873C265.357 74.9873 265.066 74.944 264.77 74.8574V73.3604L265.07 73.3672C265.444 73.3672 265.722 73.3102 265.904 73.1963C266.091 73.0824 266.237 72.8932 266.342 72.6289L266.574 72.0205L263.983 64.6035H266.109L267.483 69.2041ZM275.755 69.9561C275.755 69.7145 275.634 69.5254 275.393 69.3887C275.156 69.2474 274.773 69.1221 274.244 69.0127C272.485 68.6436 271.605 67.8962 271.605 66.7705C271.605 66.1143 271.877 65.5674 272.419 65.1299C272.966 64.6878 273.679 64.4668 274.559 64.4668C275.497 64.4668 276.247 64.6878 276.808 65.1299C277.373 65.5719 277.655 66.1462 277.655 66.8525H275.68C275.68 66.57 275.589 66.3376 275.406 66.1553C275.224 65.9684 274.939 65.875 274.552 65.875C274.219 65.875 273.962 65.9502 273.779 66.1006C273.597 66.251 273.506 66.4424 273.506 66.6748C273.506 66.8936 273.608 67.0713 273.813 67.208C274.023 67.3402 274.374 67.4564 274.866 67.5566C275.358 67.6523 275.773 67.7617 276.11 67.8848C277.154 68.2676 277.676 68.9307 277.676 69.874C277.676 70.5485 277.386 71.0954 276.808 71.5146C276.229 71.9294 275.481 72.1367 274.565 72.1367C273.946 72.1367 273.394 72.0273 272.911 71.8086C272.433 71.5853 272.057 71.2822 271.783 70.8994C271.51 70.512 271.373 70.0951 271.373 69.6484H273.246C273.264 69.9993 273.394 70.2682 273.636 70.4551C273.877 70.6419 274.201 70.7354 274.606 70.7354C274.985 70.7354 275.27 70.6647 275.461 70.5234C275.657 70.3776 275.755 70.1885 275.755 69.9561ZM281.319 62.7852V64.6035H282.584V66.0527H281.319V69.7441C281.319 70.0176 281.372 70.2135 281.477 70.332C281.581 70.4505 281.782 70.5098 282.078 70.5098C282.297 70.5098 282.491 70.4938 282.659 70.4619V71.959C282.272 72.0775 281.873 72.1367 281.463 72.1367C280.077 72.1367 279.371 71.4372 279.344 70.0381V66.0527H278.264V64.6035H279.344V62.7852H281.319ZM287.089 72.1367C286.004 72.1367 285.12 71.804 284.437 71.1387C283.757 70.4733 283.418 69.5869 283.418 68.4795V68.2881C283.418 67.5452 283.562 66.8822 283.849 66.2988C284.136 65.7109 284.541 65.2598 285.065 64.9453C285.594 64.6263 286.196 64.4668 286.87 64.4668C287.882 64.4668 288.677 64.7858 289.256 65.4238C289.839 66.0618 290.131 66.9665 290.131 68.1377V68.9443H285.421C285.485 69.4274 285.676 69.8148 285.995 70.1064C286.319 70.3981 286.727 70.5439 287.219 70.5439C287.98 70.5439 288.575 70.2682 289.003 69.7168L289.974 70.8037C289.677 71.223 289.276 71.5511 288.771 71.7881C288.265 72.0205 287.704 72.1367 287.089 72.1367ZM286.863 66.0664C286.471 66.0664 286.152 66.1986 285.906 66.4629C285.665 66.7272 285.51 67.1055 285.441 67.5977H288.189V67.4404C288.18 67.0029 288.062 66.6657 287.834 66.4287C287.606 66.1872 287.283 66.0664 286.863 66.0664ZM293.111 64.6035L293.173 65.4307C293.697 64.7881 294.406 64.4668 295.299 64.4668C296.251 64.4668 296.905 64.8428 297.261 65.5947C297.78 64.8428 298.521 64.4668 299.482 64.4668C300.285 64.4668 300.882 64.7015 301.273 65.1709C301.665 65.6357 301.861 66.3376 301.861 67.2764V72H299.879V67.2832C299.879 66.8639 299.797 66.5586 299.633 66.3672C299.469 66.1712 299.179 66.0732 298.765 66.0732C298.172 66.0732 297.762 66.3558 297.534 66.9209L297.541 72H295.565V67.29C295.565 66.8617 295.481 66.5518 295.312 66.3604C295.144 66.1689 294.857 66.0732 294.451 66.0732C293.891 66.0732 293.485 66.3057 293.234 66.7705V72H291.259V64.6035H293.111Z" fill="#675A60"/><path d="M129.98 27.376V33.424C129.98 35.368 130.868 36.34 132.644 36.34C134.012 36.34 134.912 35.692 135.344 34.396C135.464 33.988 135.608 33.712 135.776 33.568C135.968 33.424 136.268 33.352 136.676 33.352H144.02C144.236 33.352 144.416 33.436 144.56 33.604C144.728 33.748 144.812 33.928 144.812 34.144C144.812 36.232 144.212 37.984 143.012 39.4C140.804 42.04 137.36 43.36 132.68 43.36C129.008 43.36 126.08 42.556 123.896 40.948C121.712 39.316 120.62 36.82 120.62 33.46V27.34C120.62 24.052 121.736 21.58 123.968 19.924C126.2 18.268 129.104 17.44 132.68 17.44C137.36 17.44 140.804 18.76 143.012 21.4C144.212 22.816 144.812 24.568 144.812 26.656C144.812 26.872 144.728 27.064 144.56 27.232C144.416 27.376 144.236 27.448 144.02 27.448H136.676C136.292 27.448 136.004 27.376 135.812 27.232C135.644 27.088 135.488 26.812 135.344 26.404C134.888 25.108 133.988 24.46 132.644 24.46C130.868 24.46 129.98 25.432 129.98 27.376ZM168.431 17.8H174.119C174.383 17.8 174.611 17.896 174.803 18.088C174.995 18.28 175.091 18.508 175.091 18.772V42.028C175.091 42.292 174.995 42.52 174.803 42.712C174.611 42.904 174.383 43 174.119 43H167.603C167.339 43 167.111 42.904 166.919 42.712C166.727 42.52 166.631 42.292 166.631 42.028V32.164L164.255 36.052C163.871 36.652 163.427 36.952 162.923 36.952H160.403C159.899 36.952 159.455 36.652 159.071 36.052L156.695 32.164V42.028C156.695 42.292 156.599 42.52 156.407 42.712C156.215 42.904 155.987 43 155.723 43H149.207C148.943 43 148.715 42.904 148.523 42.712C148.331 42.52 148.235 42.292 148.235 42.028V18.772C148.235 18.508 148.331 18.28 148.523 18.088C148.715 17.896 148.943 17.8 149.207 17.8H154.895C155.567 17.8 156.083 18.124 156.443 18.772L161.663 27.412L166.883 18.772C167.243 18.124 167.759 17.8 168.431 17.8ZM179.122 25.72C179.122 23.272 180.13 21.28 182.146 19.744C184.186 18.208 186.85 17.44 190.138 17.44C193.45 17.44 196.15 18.244 198.238 19.852C200.35 21.46 201.406 23.14 201.406 24.892C201.406 25.108 201.322 25.3 201.154 25.468C201.01 25.612 200.842 25.684 200.65 25.684H193.45C192.898 25.684 192.394 25.48 191.938 25.072C191.482 24.664 190.87 24.46 190.102 24.46C188.95 24.46 188.374 24.796 188.374 25.468C188.374 25.828 188.65 26.128 189.202 26.368C189.778 26.608 190.834 26.824 192.37 27.016C195.946 27.472 198.49 28.312 200.002 29.536C201.538 30.736 202.306 32.572 202.306 35.044C202.306 37.492 201.178 39.496 198.922 41.056C196.69 42.592 193.762 43.36 190.138 43.36C186.514 43.36 183.67 42.616 181.606 41.128C179.542 39.64 178.51 37.828 178.51 35.692C178.51 35.476 178.582 35.296 178.726 35.152C178.894 34.984 179.086 34.9 179.302 34.9H186.142C186.646 34.9 187.198 35.14 187.798 35.62C188.422 36.1 189.274 36.34 190.354 36.34C192.154 36.34 193.054 36.004 193.054 35.332C193.054 34.9 192.73 34.576 192.082 34.36C191.434 34.12 190.21 33.88 188.41 33.64C182.218 32.824 179.122 30.184 179.122 25.72Z" fill="url(#paint0_linear)"/><path d="M120.772 84.2016V87H119.83V79.8518H122.466C123.248 79.8518 123.86 80.0514 124.302 80.4507C124.747 80.85 124.97 81.3786 124.97 82.0365C124.97 82.7304 124.752 83.2655 124.317 83.6419C123.885 84.015 123.265 84.2016 122.456 84.2016H120.772ZM120.772 83.4308H122.466C122.97 83.4308 123.356 83.313 123.625 83.0773C123.893 82.8384 124.027 82.4947 124.027 82.0463C124.027 81.6208 123.893 81.2804 123.625 81.0251C123.356 80.7699 122.988 80.6373 122.52 80.6275H120.772V83.4308ZM128.743 87H127.8V79.8518H128.743V87ZM137.523 87H136.575L132.977 81.4915V87H132.029V79.8518H132.977L136.585 85.3848V79.8518H137.523V87ZM142.572 83.6763L141.698 84.5845V87H140.756V79.8518H141.698V83.3866L144.875 79.8518H146.014L143.2 83.0086L146.235 87H145.105L142.572 83.6763ZM149.56 84.2016V87H148.618V79.8518H151.254C152.036 79.8518 152.648 80.0514 153.09 80.4507C153.535 80.85 153.758 81.3786 153.758 82.0365C153.758 82.7304 153.54 83.2655 153.105 83.6419C152.673 84.015 152.053 84.2016 151.244 84.2016H149.56ZM149.56 83.4308H151.254C151.758 83.4308 152.144 83.313 152.413 83.0773C152.681 82.8384 152.815 82.4947 152.815 82.0463C152.815 81.6208 152.681 81.2804 152.413 81.0251C152.144 80.7699 151.776 80.6373 151.308 80.6275H149.56V83.4308ZM157.531 87H156.588V79.8518H157.531V87ZM166.311 87H165.363L161.765 81.4915V87H160.817V79.8518H161.765L165.373 85.3848V79.8518H166.311V87ZM174.607 87H173.665V79.8518H174.607V87ZM183.388 87H182.44L178.842 81.4915V87H177.894V79.8518H178.842L182.45 85.3848V79.8518H183.388V87ZM191.412 80.6275H189.114V87H188.177V80.6275H185.884V79.8518H191.412V80.6275ZM198.072 83.6959H194.974V86.2292H198.572V87H194.031V79.8518H198.523V80.6275H194.974V82.9251H198.072V83.6959ZM203.926 84.1083H202.247V87H201.299V79.8518H203.666C204.471 79.8518 205.089 80.0351 205.521 80.4016C205.957 80.7682 206.174 81.3017 206.174 82.0021C206.174 82.4473 206.053 82.8351 205.811 83.1657C205.572 83.4963 205.238 83.7434 204.81 83.907L206.489 86.9411V87H205.477L203.926 84.1083ZM202.247 83.3375H203.695C204.163 83.3375 204.535 83.2164 204.81 82.9742C205.088 82.732 205.227 82.408 205.227 82.0021C205.227 81.5603 205.094 81.2215 204.829 80.9859C204.567 80.7502 204.188 80.6307 203.69 80.6275H202.247V83.3375ZM213.006 85.1344H210.011L209.338 87H208.366L211.096 79.8518H211.921L214.655 87H213.688L213.006 85.1344ZM210.296 84.3587H212.726L211.508 81.0153L210.296 84.3587ZM222.375 84.7318C222.287 85.4879 222.007 86.0721 221.536 86.4845C221.068 86.8936 220.444 87.0982 219.665 87.0982C218.821 87.0982 218.143 86.7954 217.633 86.1899C217.125 85.5844 216.872 84.7744 216.872 83.7597V83.0724C216.872 82.408 216.989 81.8238 217.225 81.3197C217.464 80.8157 217.801 80.4295 218.236 80.1611C218.672 79.8894 219.176 79.7536 219.749 79.7536C220.508 79.7536 221.117 79.9663 221.575 80.3918C222.033 80.814 222.3 81.3999 222.375 82.1494H221.428C221.346 81.5799 221.167 81.1675 220.892 80.9122C220.621 80.6569 220.239 80.5293 219.749 80.5293C219.146 80.5293 218.673 80.7519 218.33 81.197C217.989 81.6421 217.819 82.2754 217.819 83.097V83.7892C217.819 84.5649 217.981 85.1819 218.305 85.6401C218.629 86.0983 219.082 86.3274 219.665 86.3274C220.189 86.3274 220.59 86.2096 220.868 85.9739C221.149 85.735 221.336 85.321 221.428 84.7318H222.375ZM230.016 80.6275H227.719V87H226.781V80.6275H224.488V79.8518H230.016V80.6275ZM233.647 87H232.704V79.8518H233.647V87ZM239.3 85.7481L241.342 79.8518H242.373L239.722 87H238.887L236.241 79.8518H237.267L239.3 85.7481ZM248.934 83.6959H245.836V86.2292H249.435V87H244.894V79.8518H249.386V80.6275H245.836V82.9251H248.934V83.6959ZM260.167 85.1344H257.172L256.499 87H255.527L258.257 79.8518H259.082L261.816 87H260.849L260.167 85.1344ZM257.457 84.3587H259.887L258.669 81.0153L257.457 84.3587ZM269.556 86.0623C269.314 86.4092 268.975 86.6694 268.539 86.8429C268.107 87.0131 267.603 87.0982 267.027 87.0982C266.445 87.0982 265.928 86.9624 265.476 86.6907C265.024 86.4158 264.674 86.0263 264.425 85.5222C264.18 85.0182 264.054 84.434 264.047 83.7696V83.146C264.047 82.0692 264.298 81.2346 264.798 80.6422C265.302 80.0498 266.009 79.7536 266.919 79.7536C267.666 79.7536 268.266 79.9451 268.721 80.328C269.176 80.7077 269.454 81.2477 269.556 81.9481H268.613C268.436 81.0022 267.873 80.5293 266.924 80.5293C266.293 80.5293 265.813 80.7519 265.486 81.197C265.162 81.6388 264.998 82.2803 264.995 83.1215V83.7057C264.995 84.5076 265.178 85.1458 265.545 85.6204C265.911 86.0917 266.407 86.3274 267.032 86.3274C267.386 86.3274 267.695 86.2881 267.96 86.2096C268.225 86.131 268.445 85.9985 268.618 85.8119V84.2065H266.964V83.4406H269.556V86.0623ZM276.731 83.6959H273.633V86.2292H277.231V87H272.69V79.8518H277.182V80.6275H273.633V82.9251H276.731V83.6959ZM285.457 87H284.509L280.911 81.4915V87H279.963V79.8518H280.911L284.519 85.3848V79.8518H285.457V87ZM293.948 84.7318C293.859 85.4879 293.579 86.0721 293.108 86.4845C292.64 86.8936 292.017 87.0982 291.238 87.0982C290.393 87.0982 289.716 86.7954 289.205 86.1899C288.698 85.5844 288.444 84.7744 288.444 83.7597V83.0724C288.444 82.408 288.562 81.8238 288.798 81.3197C289.037 80.8157 289.374 80.4295 289.809 80.1611C290.244 79.8894 290.748 79.7536 291.321 79.7536C292.08 79.7536 292.689 79.9663 293.147 80.3918C293.606 80.814 293.872 81.3999 293.948 82.1494H293C292.918 81.5799 292.74 81.1675 292.465 80.9122C292.193 80.6569 291.812 80.5293 291.321 80.5293C290.719 80.5293 290.246 80.7519 289.902 81.197C289.562 81.6421 289.392 82.2754 289.392 83.097V83.7892C289.392 84.5649 289.554 85.1819 289.878 85.6401C290.202 86.0983 290.655 86.3274 291.238 86.3274C291.761 86.3274 292.162 86.2096 292.44 85.9739C292.722 85.735 292.908 85.321 293 84.7318H293.948ZM298.977 83.4406L300.843 79.8518H301.913L299.448 84.3341V87H298.506V84.3341L296.041 79.8518H297.121L298.977 83.4406Z" fill="#919191"/><rect x="119" y="53" width="184" height="1" fill="url(#paint1_linear)"/><path d="M63.0783 17H41.7837C28.6474 17 18.0001 28.6471 18.0001 42.9286C18.0001 55.9622 26.7115 66.6387 38.3268 68.4412V80.2269C38.3268 81.3361 39.0181 82.4454 40.1243 82.8613C40.5392 83 40.8157 83 41.2305 83C42.0602 83 42.7516 82.7227 43.3047 82.1681L56.3027 68.5798H63.2165C76.3528 68.5798 87.0001 56.9328 87.0001 42.6513C87.0001 28.3697 76.2145 17 63.0783 17ZM49.942 42.0966C49.942 46.9496 48.974 50.416 47.1764 52.4958C45.2406 54.5756 42.7516 55.5462 39.5712 55.5462C39.2947 55.5462 39.1564 55.2689 39.1564 55.1302V51.1092C39.1564 50.8319 39.433 50.6933 39.5712 50.6933C42.0602 50.6933 43.3047 48.8908 43.3047 45.2857V43.6219H37.2205C36.944 43.6219 36.8057 43.3446 36.8057 43.2059V32.1135C36.8057 31.8362 37.0822 31.6975 37.2205 31.6975H49.3889C49.6654 31.6975 49.8037 31.9748 49.8037 32.1135V42.0966H49.942ZM68.3327 42.0966C68.3327 46.9496 67.3648 50.416 65.5672 52.4958C63.7696 54.5756 61.1424 55.5462 57.962 55.5462C57.6855 55.5462 57.5472 55.2689 57.5472 55.1302V51.1092C57.5472 50.8319 57.8237 50.6933 57.962 50.6933C60.451 50.6933 61.6955 48.8908 61.6955 45.2857V43.6219H55.6113C55.3348 43.6219 55.1965 43.3446 55.1965 43.2059V32.1135C55.1965 31.8362 55.4731 31.6975 55.6113 31.6975H67.7796C68.0562 31.6975 68.1945 31.9748 68.1945 32.1135V42.0966H68.3327Z" fill="#E71F7A"/><defs><linearGradient id="paint0_linear" x1="119" y1="31.0213" x2="199.843" y2="31.0237" gradientUnits="userSpaceOnUse"><stop stop-color="#ED1E79"/><stop offset="1" stop-color="#662D8C"/></linearGradient><linearGradient id="paint1_linear" x1="119" y1="53.4894" x2="294" y2="53.9996" gradientUnits="userSpaceOnUse"><stop stop-color="#ED1E79"/><stop offset="1" stop-color="#662D8C"/></linearGradient></defs></svg>